<svg width="192" height="80" viewBox="0 0 192 80" fill="none" xmlns="http://www.w3.org/2000/svg">
<path d="M14.3813 80C10.5064 80 7.30079 78.4148 4.76447 75.2444C2.22814 72.0035 0.959961 67.882 0.959961 62.8798C0.959961 58.1594 1.69974 53.5447 3.17926 49.0357C4.72924 44.4562 6.77239 40.3347 9.30872 36.6711C11.9155 32.937 14.7688 29.978 17.8688 27.7939C21.0392 25.6099 24.2096 24.5178 27.38 24.5178C30.7618 24.5178 33.6152 25.4337 35.9402 27.2655C36.2924 27.5473 36.5038 27.7939 36.5742 28.0053C36.6447 28.1462 36.6094 28.4985 36.4685 29.0621L33.6152 42.9062C33.4038 43.8926 32.9459 44.3857 32.2413 44.3857C31.4663 44.3857 31.0084 43.8573 30.8675 42.8005L30.3391 35.2972C30.1277 32.0564 29.6345 29.9428 28.8596 28.9564C28.155 27.9701 27.0982 27.4769 25.6891 27.4769C23.7164 27.4769 21.7085 28.4632 19.6654 30.4359C17.6222 32.3382 15.72 34.945 13.9586 38.2563C12.2678 41.4971 10.8939 45.1255 9.8371 49.1413C8.85075 53.0867 8.35757 57.1026 8.35757 61.1889C8.35757 70.066 11.2462 74.5046 17.0234 74.5046C19.7711 74.5046 22.2369 73.2365 24.421 70.7001C26.6755 68.1638 28.7539 64.2184 30.6561 58.8639C30.8675 58.1594 31.3607 57.8071 32.1357 57.8071C32.5584 57.8071 32.805 57.9833 32.8754 58.3355C32.9459 58.6173 32.8754 59.2162 32.6641 60.1321C31.9595 64.007 30.6913 67.424 28.8596 70.3831C27.0278 73.3421 24.8437 75.7023 22.3074 77.4637C19.8415 79.1546 17.1995 80 14.3813 80Z" fill="white"/>
<path d="M49.5291 80C45.161 80 41.7088 78.2034 39.1725 74.6103C36.6362 70.9467 35.368 66.015 35.368 59.8151C35.368 55.2356 36.1078 50.8322 37.5873 46.605C39.0668 42.3778 41.0043 38.6085 43.3997 35.2972C45.8656 31.9859 48.578 29.3791 51.5371 27.4769C54.5666 25.5042 57.5961 24.5178 60.6256 24.5178C64.9937 24.5178 68.4459 26.3144 70.9822 29.9075C73.5186 33.5007 74.7867 38.4324 74.7867 44.7028C74.7867 49.2822 74.047 53.6856 72.5674 57.9128C71.0879 62.14 69.1152 65.9093 66.6494 69.2206C64.2539 72.5319 61.5415 75.1739 58.512 77.1466C55.5529 79.0489 52.5586 80 49.5291 80ZM49.3178 77.4637C51.5723 77.4637 53.7564 76.3716 55.87 74.1876C58.054 72.0035 60.0267 69.1149 61.7881 65.5218C63.5494 61.9287 64.9585 57.948 66.0153 53.5799C67.0721 49.1413 67.6005 44.7028 67.6005 40.2642C67.6005 31.4575 65.3107 27.0542 60.7313 27.0542C58.5472 27.0542 56.3631 28.1462 54.1791 30.3302C51.995 32.4439 50.0223 35.2972 48.261 38.8904C46.5701 42.4835 45.1962 46.4993 44.1394 50.9379C43.0826 55.306 42.5542 59.7094 42.5542 64.1479C42.5542 73.0251 44.8088 77.4637 49.3178 77.4637Z" fill="white"/>
<path d="M77.224 79.0489C76.3081 79.0489 75.9558 78.5909 76.1672 77.675L86.8409 32.0211C87.475 29.4144 86.6295 28.111 84.3046 28.111H82.0853C80.958 28.111 80.3944 27.6178 80.3944 26.6314C80.3944 25.6451 81.0285 25.1519 82.2966 25.1519C84.4807 25.1519 86.1011 24.8701 87.1579 24.3065C88.2852 23.7428 89.025 22.6156 89.3772 20.9247C90.2931 16.9088 91.6317 13.3509 93.3931 10.251C95.2249 7.08058 97.4089 4.57948 99.9453 2.74768C102.482 0.915895 105.265 0 108.294 0C110.76 0 112.733 0.598856 114.212 1.79657C115.762 2.92382 116.537 4.50903 116.537 6.55218C116.537 8.10216 116.114 9.37032 115.269 10.3567C114.494 11.2726 113.508 11.7305 112.31 11.7305C110.83 11.7305 109.844 11.3078 109.351 10.4623C108.928 9.61691 108.646 8.63056 108.505 7.5033C108.435 6.37604 108.224 5.3897 107.871 4.54425C107.519 3.69881 106.709 3.27609 105.441 3.27609C103.82 3.27609 102.376 4.08631 101.108 5.70674C99.91 7.25671 98.818 10.2158 97.8316 14.5839L95.718 23.7781C95.5067 24.694 95.8942 25.1519 96.8805 25.1519H105.335C106.674 25.1519 107.202 25.6451 106.92 26.6314C106.709 27.6178 106.075 28.111 105.018 28.111H95.8237C95.1192 28.111 94.6612 28.4632 94.4499 29.1678L83.1421 77.8864C82.9307 78.6614 82.4376 79.0489 81.6626 79.0489H77.224Z" fill="white"/>
<path d="M100.577 79.0489C99.661 79.0489 99.3087 78.5909 99.5201 77.675L110.194 32.0211C110.828 29.4144 109.982 28.111 107.657 28.111H105.438C104.311 28.111 103.747 27.6178 103.747 26.6314C103.747 25.6451 104.381 25.1519 105.65 25.1519C107.834 25.1519 109.454 24.8701 110.511 24.3065C111.638 23.7428 112.378 22.6156 112.73 20.9247C113.646 16.9088 114.985 13.3509 116.746 10.251C118.578 7.08058 120.762 4.57948 123.298 2.74768C125.834 0.915895 128.617 0 131.647 0C134.113 0 136.085 0.598856 137.565 1.79657C139.115 2.92382 139.89 4.50903 139.89 6.55218C139.89 8.10216 139.467 9.37032 138.622 10.3567C137.847 11.2726 136.86 11.7305 135.663 11.7305C134.183 11.7305 133.197 11.3078 132.704 10.4623C132.281 9.61691 131.999 8.63056 131.858 7.5033C131.788 6.37604 131.576 5.3897 131.224 4.54425C130.872 3.69881 130.062 3.27609 128.793 3.27609C127.173 3.27609 125.729 4.08631 124.461 5.70674C123.263 7.25671 122.171 10.2158 121.185 14.5839L119.071 23.7781C118.86 24.694 119.247 25.1519 120.233 25.1519H128.688C130.026 25.1519 130.555 25.6451 130.273 26.6314C130.062 27.6178 129.428 28.111 128.371 28.111H119.177C118.472 28.111 118.014 28.4632 117.803 29.1678L106.495 77.8864C106.284 78.6614 105.79 79.0489 105.015 79.0489H100.577Z" fill="white"/>
<path d="M134.181 80C130.447 80 127.452 78.5557 125.198 75.6671C122.943 72.7081 121.816 68.5513 121.816 63.1968C121.816 58.5469 122.626 53.9322 124.247 49.3527C125.938 44.7732 128.122 40.6165 130.799 36.8824C133.476 33.1484 136.4 30.1541 139.57 27.8996C142.811 25.6451 145.946 24.5178 148.976 24.5178C152.287 24.5178 154.647 25.328 156.057 26.9485C157.536 28.4985 158.276 30.6121 158.276 33.2893C158.276 36.4597 157.149 39.6301 154.894 42.8005C152.71 45.9005 149.61 48.6834 145.594 51.1493C141.649 53.6151 136.999 55.4469 131.644 56.6446C130.094 56.9969 129.284 57.8776 129.214 59.2867C129.143 59.7798 129.108 60.3082 129.108 60.8719C129.108 61.365 129.108 61.8582 129.108 62.3514C129.108 66.3672 129.777 69.3967 131.116 71.4399C132.525 73.483 134.427 74.5046 136.823 74.5046C139.5 74.5046 142.072 73.2717 144.537 70.8058C147.074 68.3399 149.187 64.8525 150.878 60.3435C151.09 59.7094 151.512 59.3923 152.146 59.3923C152.569 59.3923 152.816 59.5685 152.886 59.9207C153.027 60.273 153.027 60.6957 152.886 61.1889C150.632 67.3888 147.884 72.074 144.643 75.2444C141.473 78.4148 137.985 80 134.181 80ZM130.271 52.6288C130.13 53.122 130.2 53.5447 130.482 53.897C130.834 54.1788 131.257 54.2492 131.75 54.1083C136.118 52.9106 139.782 51.114 142.741 48.7186C145.7 46.2527 147.919 43.5051 149.399 40.4756C150.949 37.4461 151.724 34.487 151.724 31.5984C151.724 28.6394 150.561 27.1598 148.236 27.1598C146.193 27.1598 143.974 28.3575 141.578 30.753C139.183 33.1484 136.964 36.2836 134.92 40.1585C132.877 44.0335 131.327 48.1902 130.271 52.6288Z" fill="white"/>
<path d="M167.751 80C164.017 80 161.022 78.5557 158.768 75.6671C156.513 72.7081 155.386 68.5513 155.386 63.1968C155.386 58.5469 156.196 53.9322 157.817 49.3527C159.508 44.7732 161.692 40.6165 164.369 36.8824C167.046 33.1484 169.97 30.1541 173.14 27.8996C176.381 25.6451 179.516 24.5178 182.546 24.5178C185.857 24.5178 188.217 25.328 189.627 26.9485C191.106 28.4985 191.846 30.6121 191.846 33.2893C191.846 36.4597 190.719 39.6301 188.464 42.8005C186.28 45.9005 183.18 48.6834 179.164 51.1493C175.219 53.6151 170.569 55.4469 165.214 56.6446C163.664 56.9969 162.854 57.8776 162.784 59.2867C162.713 59.7798 162.678 60.3082 162.678 60.8719C162.678 61.365 162.678 61.8582 162.678 62.3514C162.678 66.3672 163.347 69.3967 164.686 71.4399C166.095 73.483 167.997 74.5046 170.393 74.5046C173.07 74.5046 175.642 73.2717 178.107 70.8058C180.644 68.3399 182.757 64.8525 184.448 60.3435C184.66 59.7094 185.082 59.3923 185.716 59.3923C186.139 59.3923 186.386 59.5685 186.456 59.9207C186.597 60.273 186.597 60.6957 186.456 61.1889C184.202 67.3888 181.454 72.074 178.213 75.2444C175.043 78.4148 171.555 80 167.751 80ZM163.841 52.6288C163.7 53.122 163.77 53.5447 164.052 53.897C164.404 54.1788 164.827 54.2492 165.32 54.1083C169.688 52.9106 173.352 51.114 176.311 48.7186C179.27 46.2527 181.489 43.5051 182.969 40.4756C184.519 37.4461 185.294 34.487 185.294 31.5984C185.294 28.6394 184.131 27.1598 181.806 27.1598C179.763 27.1598 177.544 28.3575 175.148 30.753C172.753 33.1484 170.534 36.2836 168.491 40.1585C166.447 44.0335 164.897 48.1902 163.841 52.6288Z" fill="white"/>
</svg>
