<svg width="446" height="80" viewBox="0 0 446 80" fill="none" xmlns="http://www.w3.org/2000/svg">
<g clip-path="url(#clip0_52_154)">
<path d="M60.3752 23.9583H40.8961C41.0002 21.3542 41.2086 16.4583 35.1669 16.4583C31.7294 16.4583 27.9794 18.8542 27.3544 22.5C26.4169 27.0833 28.3961 28.0208 41.1044 34.2708C54.2294 40.7292 56.6252 47.3958 54.9586 56.3542C52.8752 67.6042 44.1252 80 23.7086 80C1.41691 80 -1.39558 65.4167 0.479415 55.5208L0.896081 53.0208H20.4794C18.8127 61.9792 24.1252 63.5417 26.6252 63.5417C31.3127 63.5417 34.7502 59.6875 35.4794 56.1458C36.4169 51.0417 33.3961 49.7917 22.4586 44.7917C17.4586 42.6042 4.95858 37.1875 7.66691 22.7083C10.3752 8.22917 25.8961 0 38.8127 0C46.4169 0 54.1252 2.81249 58.0836 8.75C61.6252 14.375 61.0002 19.5833 60.3752 23.9583Z" stroke="white"/>
<path d="M69.5671 78.5417L80.6088 18.75H65.4005L68.6296 1.45833H118.63L115.4 18.75H100.296L89.2546 78.5417H69.5671Z" stroke="white"/>
<path d="M112.278 78.5417L126.549 1.45833H146.236L131.965 78.5417H112.278Z" stroke="white"/>
<path d="M146.47 78.5417L160.741 1.45833H180.428L169.386 61.25H192.199L188.97 78.5417H146.47Z" stroke="white"/>
<path d="M197.231 78.5417L211.502 1.45833H231.189L220.147 61.25H242.96L239.731 78.5417H197.231Z" stroke="white"/>
<path d="M268.381 80C264.506 80 261.301 78.4148 258.764 75.2444C256.228 72.0035 254.96 67.882 254.96 62.8798C254.96 58.1594 255.7 53.5447 257.179 49.0357C258.729 44.4562 260.772 40.3347 263.309 36.6711C265.915 32.937 268.769 29.978 271.869 27.7939C275.039 25.6099 278.21 24.5178 281.38 24.5178C284.762 24.5178 287.615 25.4337 289.94 27.2655C290.292 27.5473 290.504 27.7939 290.574 28.0053C290.645 28.1462 290.609 28.4985 290.469 29.0621L287.615 42.9062C287.404 43.8926 286.946 44.3857 286.241 44.3857C285.466 44.3857 285.008 43.8573 284.867 42.8005L284.339 35.2972C284.128 32.0564 283.635 29.9428 282.86 28.9564C282.155 27.9701 281.098 27.4769 279.689 27.4769C277.716 27.4769 275.709 28.4632 273.665 30.4359C271.622 32.3382 269.72 34.945 267.959 38.2563C266.268 41.4971 264.894 45.1255 263.837 49.1413C262.851 53.0867 262.358 57.1026 262.358 61.1889C262.358 70.066 265.246 74.5046 271.023 74.5046C273.771 74.5046 276.237 73.2365 278.421 70.7001C280.676 68.1638 282.754 64.2184 284.656 58.8639C284.867 58.1594 285.361 57.8071 286.136 57.8071C286.558 57.8071 286.805 57.9833 286.875 58.3355C286.946 58.6173 286.875 59.2162 286.664 60.1321C285.96 64.007 284.691 67.424 282.86 70.3831C281.028 73.3421 278.844 75.7023 276.307 77.4637C273.841 79.1546 271.199 80 268.381 80Z" fill="white"/>
<path d="M303.529 80C299.161 80 295.709 78.2034 293.172 74.6103C290.636 70.9467 289.368 66.015 289.368 59.8151C289.368 55.2356 290.108 50.8322 291.587 46.605C293.067 42.3778 295.004 38.6085 297.4 35.2972C299.866 31.9859 302.578 29.3791 305.537 27.4769C308.567 25.5042 311.596 24.5178 314.626 24.5178C318.994 24.5178 322.446 26.3144 324.982 29.9075C327.519 33.5007 328.787 38.4324 328.787 44.7028C328.787 49.2822 328.047 53.6856 326.567 57.9128C325.088 62.14 323.115 65.9093 320.649 69.2206C318.254 72.5319 315.541 75.1739 312.512 77.1466C309.553 79.0489 306.559 80 303.529 80ZM303.318 77.4637C305.572 77.4637 307.756 76.3716 309.87 74.1876C312.054 72.0035 314.027 69.1149 315.788 65.5218C317.549 61.9287 318.958 57.948 320.015 53.5799C321.072 49.1413 321.6 44.7028 321.6 40.2642C321.6 31.4575 319.311 27.0542 314.731 27.0542C312.547 27.0542 310.363 28.1462 308.179 30.3302C305.995 32.4439 304.022 35.2972 302.261 38.8904C300.57 42.4835 299.196 46.4993 298.139 50.9379C297.083 55.306 296.554 59.7094 296.554 64.1479C296.554 73.0251 298.809 77.4637 303.318 77.4637Z" fill="white"/>
<path d="M331.224 79.0489C330.308 79.0489 329.956 78.5909 330.167 77.675L340.841 32.0211C341.475 29.4144 340.63 28.111 338.305 28.111H336.085C334.958 28.111 334.394 27.6178 334.394 26.6314C334.394 25.6451 335.028 25.1519 336.297 25.1519C338.481 25.1519 340.101 24.8701 341.158 24.3065C342.285 23.7428 343.025 22.6156 343.377 20.9247C344.293 16.9088 345.632 13.3509 347.393 10.251C349.225 7.08058 351.409 4.57948 353.945 2.74768C356.482 0.915895 359.265 0 362.294 0C364.76 0 366.733 0.598856 368.212 1.79657C369.762 2.92382 370.537 4.50903 370.537 6.55218C370.537 8.10216 370.114 9.37032 369.269 10.3567C368.494 11.2726 367.508 11.7305 366.31 11.7305C364.83 11.7305 363.844 11.3078 363.351 10.4623C362.928 9.61691 362.646 8.63056 362.505 7.5033C362.435 6.37604 362.224 5.3897 361.871 4.54425C361.519 3.69881 360.709 3.27609 359.441 3.27609C357.82 3.27609 356.376 4.08631 355.108 5.70674C353.91 7.25671 352.818 10.2158 351.832 14.5839L349.718 23.7781C349.507 24.694 349.894 25.1519 350.881 25.1519H359.335C360.674 25.1519 361.202 25.6451 360.92 26.6314C360.709 27.6178 360.075 28.111 359.018 28.111H349.824C349.119 28.111 348.661 28.4632 348.45 29.1678L337.142 77.8864C336.931 78.6614 336.438 79.0489 335.663 79.0489H331.224Z" fill="white"/>
<path d="M354.577 79.0489C353.661 79.0489 353.309 78.5909 353.52 77.675L364.194 32.0211C364.828 29.4144 363.982 28.111 361.657 28.111H359.438C358.311 28.111 357.747 27.6178 357.747 26.6314C357.747 25.6451 358.381 25.1519 359.65 25.1519C361.834 25.1519 363.454 24.8701 364.511 24.3065C365.638 23.7428 366.378 22.6156 366.73 20.9247C367.646 16.9088 368.985 13.3509 370.746 10.251C372.578 7.08058 374.762 4.57948 377.298 2.74768C379.834 0.915895 382.617 0 385.647 0C388.113 0 390.085 0.598856 391.565 1.79657C393.115 2.92382 393.89 4.50903 393.89 6.55218C393.89 8.10216 393.467 9.37032 392.622 10.3567C391.847 11.2726 390.86 11.7305 389.663 11.7305C388.183 11.7305 387.197 11.3078 386.704 10.4623C386.281 9.61691 385.999 8.63056 385.858 7.5033C385.788 6.37604 385.576 5.3897 385.224 4.54425C384.872 3.69881 384.062 3.27609 382.793 3.27609C381.173 3.27609 379.729 4.08631 378.461 5.70674C377.263 7.25671 376.171 10.2158 375.185 14.5839L373.071 23.7781C372.86 24.694 373.247 25.1519 374.233 25.1519H382.688C384.026 25.1519 384.555 25.6451 384.273 26.6314C384.062 27.6178 383.428 28.111 382.371 28.111H373.177C372.472 28.111 372.014 28.4632 371.803 29.1678L360.495 77.8864C360.284 78.6614 359.79 79.0489 359.015 79.0489H354.577Z" fill="white"/>
<path d="M388.181 80C384.447 80 381.452 78.5557 379.198 75.6671C376.943 72.7081 375.816 68.5513 375.816 63.1968C375.816 58.5469 376.626 53.9322 378.247 49.3527C379.938 44.7732 382.122 40.6165 384.799 36.8824C387.476 33.1484 390.4 30.1541 393.57 27.8996C396.811 25.6451 399.946 24.5178 402.976 24.5178C406.287 24.5178 408.647 25.328 410.057 26.9485C411.536 28.4985 412.276 30.6121 412.276 33.2893C412.276 36.4597 411.149 39.6301 408.894 42.8005C406.71 45.9005 403.61 48.6834 399.594 51.1493C395.649 53.6151 390.999 55.4469 385.644 56.6446C384.094 56.9969 383.284 57.8776 383.214 59.2867C383.143 59.7798 383.108 60.3082 383.108 60.8719C383.108 61.365 383.108 61.8582 383.108 62.3514C383.108 66.3672 383.777 69.3967 385.116 71.4399C386.525 73.483 388.427 74.5046 390.823 74.5046C393.5 74.5046 396.072 73.2717 398.537 70.8058C401.074 68.3399 403.187 64.8525 404.878 60.3435C405.09 59.7094 405.512 59.3923 406.146 59.3923C406.569 59.3923 406.816 59.5685 406.886 59.9207C407.027 60.273 407.027 60.6957 406.886 61.1889C404.632 67.3888 401.884 72.074 398.643 75.2444C395.473 78.4148 391.985 80 388.181 80ZM384.271 52.6288C384.13 53.122 384.2 53.5447 384.482 53.897C384.834 54.1788 385.257 54.2492 385.75 54.1083C390.118 52.9106 393.782 51.114 396.741 48.7186C399.7 46.2527 401.919 43.5051 403.399 40.4756C404.949 37.4461 405.724 34.487 405.724 31.5984C405.724 28.6394 404.561 27.1598 402.236 27.1598C400.193 27.1598 397.974 28.3575 395.578 30.753C393.183 33.1484 390.964 36.2836 388.92 40.1585C386.877 44.0335 385.327 48.1902 384.271 52.6288Z" fill="white"/>
<path d="M421.751 80C418.017 80 415.022 78.5557 412.768 75.6671C410.513 72.7081 409.386 68.5513 409.386 63.1968C409.386 58.5469 410.196 53.9322 411.817 49.3527C413.508 44.7732 415.692 40.6165 418.369 36.8824C421.046 33.1484 423.97 30.1541 427.14 27.8996C430.381 25.6451 433.516 24.5178 436.546 24.5178C439.857 24.5178 442.217 25.328 443.627 26.9485C445.106 28.4985 445.846 30.6121 445.846 33.2893C445.846 36.4597 444.719 39.6301 442.464 42.8005C440.28 45.9005 437.18 48.6834 433.164 51.1493C429.219 53.6151 424.569 55.4469 419.214 56.6446C417.664 56.9969 416.854 57.8776 416.784 59.2867C416.713 59.7798 416.678 60.3082 416.678 60.8719C416.678 61.365 416.678 61.8582 416.678 62.3514C416.678 66.3672 417.347 69.3967 418.686 71.4399C420.095 73.483 421.997 74.5046 424.393 74.5046C427.07 74.5046 429.642 73.2717 432.107 70.8058C434.644 68.3399 436.757 64.8525 438.448 60.3435C438.66 59.7094 439.082 59.3923 439.716 59.3923C440.139 59.3923 440.386 59.5685 440.456 59.9207C440.597 60.273 440.597 60.6957 440.456 61.1889C438.202 67.3888 435.454 72.074 432.213 75.2444C429.043 78.4148 425.555 80 421.751 80ZM417.841 52.6288C417.7 53.122 417.77 53.5447 418.052 53.897C418.404 54.1788 418.827 54.2492 419.32 54.1083C423.688 52.9106 427.352 51.114 430.311 48.7186C433.27 46.2527 435.489 43.5051 436.969 40.4756C438.519 37.4461 439.294 34.487 439.294 31.5984C439.294 28.6394 438.131 27.1598 435.806 27.1598C433.763 27.1598 431.544 28.3575 429.148 30.753C426.753 33.1484 424.534 36.2836 422.491 40.1585C420.447 44.0335 418.897 48.1902 417.841 52.6288Z" fill="white"/>
</g>
<defs>
<clipPath id="clip0_52_154">
<rect width="446" height="80" fill="white"/>
</clipPath>
</defs>
</svg>
