<svg width="513" height="579" viewBox="0 0 513 579" fill="none" xmlns="http://www.w3.org/2000/svg">
<path d="M129 0V109C129 117.837 136.163 125 145 125H156.5C165.337 125 172.5 132.163 172.5 141V215.5C172.5 224.337 165.337 231.5 156.5 231.5H58C49.1634 231.5 42 238.663 42 247.5V332.5C42 341.337 49.1634 348.5 58 348.5H391.5C400.337 348.5 407.5 355.663 407.5 364.5V406.5C407.5 415.337 400.337 422.5 391.5 422.5H188.5C179.663 422.5 172.5 429.663 172.5 438.5V492C172.5 500.837 165.337 508 156.5 508H22C13.1634 508 6 515.163 6 524V559" stroke="black" stroke-width="12" stroke-linejoin="round"/>
<path d="M342.5 579L342.5 464.5C342.5 455.663 335.337 448.5 326.5 448.5L233.5 448.5C224.663 448.5 217.5 441.337 217.5 432.5L217.5 404C217.5 395.163 210.337 388 201.5 388L133 388C124.163 388 117 380.837 117 372L117 341.5C117 332.663 124.163 325.5 133 325.5L292 325.5C300.837 325.5 308 318.337 308 309.5L308 296C308 287.163 315.163 280 324 280L349 280C357.837 280 365 272.837 365 264L365 256C365 247.163 357.837 240 349 240L222 240C213.163 240 206 232.837 206 224L206 197.5C206 188.663 213.163 181.5 222 181.5L491 181.5C499.837 181.5 507 174.337 507 165.5L507 131C507 122.164 499.837 115 491 115L407.5 115C398.663 115 391.5 107.837 391.5 99.0001L391.5 49.0001" stroke="black" stroke-width="12" stroke-linejoin="round"/>
</svg>
