<svg width="243" height="80" viewBox="0 0 243 80" fill="none" xmlns="http://www.w3.org/2000/svg">
    <path
        d="M60.3752 23.9583H40.8961C41.0002 21.3542 41.2086 16.4583 35.1669 16.4583C31.7294 16.4583 27.9794 18.8542 27.3544 22.5C26.4169 27.0833 28.3961 28.0208 41.1044 34.2708C54.2294 40.7292 56.6252 47.3958 54.9586 56.3542C52.8752 67.6042 44.1252 80 23.7086 80C1.41691 80 -1.39558 65.4167 0.479415 55.5208L0.896081 53.0208H20.4794C18.8127 61.9792 24.1252 63.5417 26.6252 63.5417C31.3127 63.5417 34.7502 59.6875 35.4794 56.1458C36.4169 51.0417 33.3961 49.7917 22.4586 44.7917C17.4586 42.6042 4.95858 37.1875 7.66691 22.7083C10.3752 8.22917 25.8961 0 38.8127 0C46.4169 0 54.1252 2.81249 58.0836 8.75C61.6252 14.375 61.0002 19.5833 60.3752 23.9583Z"
        fill="#F8F5E6" />
    <path
        d="M69.5671 78.5417L80.6088 18.75H65.4005L68.6296 1.45833H118.63L115.4 18.75H100.296L89.2546 78.5417H69.5671Z"
        fill="#F8F5E6" />
    <path d="M112.278 78.5417L126.549 1.45833H146.236L131.965 78.5417H112.278Z" fill="#F8F5E6" />
    <path d="M146.47 78.5417L160.741 1.45833H180.428L169.386 61.25H192.199L188.97 78.5417H146.47Z"
        fill="#F8F5E6" />
    <path d="M197.231 78.5417L211.502 1.45833H231.189L220.147 61.25H242.96L239.731 78.5417H197.231Z"
        fill="#F8F5E6" />
</svg>