<svg width="526" height="160" viewBox="0 0 526 160" fill="none" xmlns="http://www.w3.org/2000/svg">
<path d="M100.375 63.9583H80.8961C81.0002 61.3542 81.2086 56.4583 75.1669 56.4583C71.7294 56.4583 67.9794 58.8542 67.3544 62.5C66.4169 67.0833 68.3961 68.0208 81.1044 74.2708C94.2294 80.7292 96.6252 87.3958 94.9586 96.3542C92.8752 107.604 84.1252 120 63.7086 120C41.4169 120 38.6044 105.417 40.4794 95.5208L40.8961 93.0208H60.4794C58.8127 101.979 64.1252 103.542 66.6252 103.542C71.3127 103.542 74.7502 99.6875 75.4794 96.1458C76.4169 91.0417 73.3961 89.7917 62.4586 84.7917C57.4586 82.6042 44.9586 77.1875 47.6669 62.7083C50.3752 48.2292 65.8961 40 78.8127 40C86.4169 40 94.1252 42.8125 98.0836 48.75C101.625 54.375 101 59.5833 100.375 63.9583Z" fill="white"/>
<path d="M109.567 118.542L120.609 58.75H105.4L108.63 41.4583H158.63L155.4 58.75H140.296L129.255 118.542H109.567Z" fill="white"/>
<path d="M152.278 118.542L166.549 41.4583H186.236L171.965 118.542H152.278Z" fill="white"/>
<path d="M186.47 118.542L200.741 41.4583H220.428L209.386 101.25H232.199L228.97 118.542H186.47Z" fill="white"/>
<path d="M237.231 118.542L251.502 41.4583H271.189L260.147 101.25H282.96L279.731 118.542H237.231Z" fill="white"/>
<path d="M308.381 120C304.506 120 301.301 118.415 298.764 115.244C296.228 112.004 294.96 107.882 294.96 102.88C294.96 98.1594 295.7 93.5447 297.179 89.0357C298.729 84.4562 300.772 80.3347 303.309 76.6711C305.915 72.937 308.769 69.978 311.869 67.7939C315.039 65.6099 318.21 64.5178 321.38 64.5178C324.762 64.5178 327.615 65.4337 329.94 67.2655C330.292 67.5473 330.504 67.7939 330.574 68.0053C330.645 68.1462 330.609 68.4985 330.469 69.0621L327.615 82.9062C327.404 83.8926 326.946 84.3857 326.241 84.3857C325.466 84.3857 325.008 83.8573 324.867 82.8005L324.339 75.2972C324.128 72.0564 323.635 69.9428 322.86 68.9564C322.155 67.9701 321.098 67.4769 319.689 67.4769C317.716 67.4769 315.709 68.4632 313.665 70.4359C311.622 72.3382 309.72 74.945 307.959 78.2563C306.268 81.4971 304.894 85.1255 303.837 89.1413C302.851 93.0867 302.358 97.1026 302.358 101.189C302.358 110.066 305.246 114.505 311.023 114.505C313.771 114.505 316.237 113.236 318.421 110.7C320.676 108.164 322.754 104.218 324.656 98.8639C324.867 98.1594 325.361 97.8071 326.136 97.8071C326.558 97.8071 326.805 97.9833 326.875 98.3355C326.946 98.6173 326.875 99.2162 326.664 100.132C325.96 104.007 324.691 107.424 322.86 110.383C321.028 113.342 318.844 115.702 316.307 117.464C313.841 119.155 311.199 120 308.381 120Z" fill="white"/>
<path d="M343.529 120C339.161 120 335.709 118.203 333.172 114.61C330.636 110.947 329.368 106.015 329.368 99.8151C329.368 95.2356 330.108 90.8322 331.587 86.605C333.067 82.3778 335.004 78.6085 337.4 75.2972C339.866 71.9859 342.578 69.3791 345.537 67.4769C348.567 65.5042 351.596 64.5178 354.626 64.5178C358.994 64.5178 362.446 66.3144 364.982 69.9075C367.519 73.5007 368.787 78.4324 368.787 84.7028C368.787 89.2822 368.047 93.6856 366.567 97.9128C365.088 102.14 363.115 105.909 360.649 109.221C358.254 112.532 355.541 115.174 352.512 117.147C349.553 119.049 346.559 120 343.529 120ZM343.318 117.464C345.572 117.464 347.756 116.372 349.87 114.188C352.054 112.004 354.027 109.115 355.788 105.522C357.549 101.929 358.958 97.948 360.015 93.5799C361.072 89.1413 361.6 84.7028 361.6 80.2642C361.6 71.4575 359.311 67.0542 354.731 67.0542C352.547 67.0542 350.363 68.1462 348.179 70.3302C345.995 72.4439 344.022 75.2972 342.261 78.8904C340.57 82.4835 339.196 86.4993 338.139 90.9379C337.083 95.306 336.554 99.7094 336.554 104.148C336.554 113.025 338.809 117.464 343.318 117.464Z" fill="white"/>
<path d="M371.224 119.049C370.308 119.049 369.956 118.591 370.167 117.675L380.841 72.0211C381.475 69.4144 380.63 68.111 378.305 68.111H376.085C374.958 68.111 374.394 67.6178 374.394 66.6314C374.394 65.6451 375.028 65.1519 376.297 65.1519C378.481 65.1519 380.101 64.8701 381.158 64.3065C382.285 63.7428 383.025 62.6156 383.377 60.9247C384.293 56.9088 385.632 53.3509 387.393 50.251C389.225 47.0806 391.409 44.5795 393.945 42.7477C396.482 40.9159 399.265 40 402.294 40C404.76 40 406.733 40.5989 408.212 41.7966C409.762 42.9238 410.537 44.509 410.537 46.5522C410.537 48.1022 410.114 49.3703 409.269 50.3567C408.494 51.2726 407.508 51.7305 406.31 51.7305C404.83 51.7305 403.844 51.3078 403.351 50.4623C402.928 49.6169 402.646 48.6306 402.505 47.5033C402.435 46.376 402.224 45.3897 401.871 44.5443C401.519 43.6988 400.709 43.2761 399.441 43.2761C397.82 43.2761 396.376 44.0863 395.108 45.7067C393.91 47.2567 392.818 50.2158 391.832 54.5839L389.718 63.7781C389.507 64.694 389.894 65.1519 390.881 65.1519H399.335C400.674 65.1519 401.202 65.6451 400.92 66.6314C400.709 67.6178 400.075 68.111 399.018 68.111H389.824C389.119 68.111 388.661 68.4632 388.45 69.1678L377.142 117.886C376.931 118.661 376.438 119.049 375.663 119.049H371.224Z" fill="white"/>
<path d="M394.577 119.049C393.661 119.049 393.309 118.591 393.52 117.675L404.194 72.0211C404.828 69.4144 403.982 68.111 401.657 68.111H399.438C398.311 68.111 397.747 67.6178 397.747 66.6314C397.747 65.6451 398.381 65.1519 399.65 65.1519C401.834 65.1519 403.454 64.8701 404.511 64.3065C405.638 63.7428 406.378 62.6156 406.73 60.9247C407.646 56.9088 408.985 53.3509 410.746 50.251C412.578 47.0806 414.762 44.5795 417.298 42.7477C419.834 40.9159 422.617 40 425.647 40C428.113 40 430.085 40.5989 431.565 41.7966C433.115 42.9238 433.89 44.509 433.89 46.5522C433.89 48.1022 433.467 49.3703 432.622 50.3567C431.847 51.2726 430.86 51.7305 429.663 51.7305C428.183 51.7305 427.197 51.3078 426.704 50.4623C426.281 49.6169 425.999 48.6306 425.858 47.5033C425.788 46.376 425.576 45.3897 425.224 44.5443C424.872 43.6988 424.062 43.2761 422.793 43.2761C421.173 43.2761 419.729 44.0863 418.461 45.7067C417.263 47.2567 416.171 50.2158 415.185 54.5839L413.071 63.7781C412.86 64.694 413.247 65.1519 414.233 65.1519H422.688C424.026 65.1519 424.555 65.6451 424.273 66.6314C424.062 67.6178 423.428 68.111 422.371 68.111H413.177C412.472 68.111 412.014 68.4632 411.803 69.1678L400.495 117.886C400.284 118.661 399.79 119.049 399.015 119.049H394.577Z" fill="white"/>
<path d="M428.181 120C424.447 120 421.452 118.556 419.198 115.667C416.943 112.708 415.816 108.551 415.816 103.197C415.816 98.5469 416.626 93.9322 418.247 89.3527C419.938 84.7732 422.122 80.6165 424.799 76.8824C427.476 73.1484 430.4 70.1541 433.57 67.8996C436.811 65.6451 439.946 64.5178 442.976 64.5178C446.287 64.5178 448.647 65.328 450.057 66.9485C451.536 68.4985 452.276 70.6121 452.276 73.2893C452.276 76.4597 451.149 79.6301 448.894 82.8005C446.71 85.9005 443.61 88.6834 439.594 91.1493C435.649 93.6151 430.999 95.4469 425.644 96.6446C424.094 96.9969 423.284 97.8776 423.214 99.2867C423.143 99.7798 423.108 100.308 423.108 100.872C423.108 101.365 423.108 101.858 423.108 102.351C423.108 106.367 423.777 109.397 425.116 111.44C426.525 113.483 428.427 114.505 430.823 114.505C433.5 114.505 436.072 113.272 438.537 110.806C441.074 108.34 443.187 104.852 444.878 100.343C445.09 99.7094 445.512 99.3923 446.146 99.3923C446.569 99.3923 446.816 99.5685 446.886 99.9207C447.027 100.273 447.027 100.696 446.886 101.189C444.632 107.389 441.884 112.074 438.643 115.244C435.473 118.415 431.985 120 428.181 120ZM424.271 92.6288C424.13 93.122 424.2 93.5447 424.482 93.897C424.834 94.1788 425.257 94.2492 425.75 94.1083C430.118 92.9106 433.782 91.114 436.741 88.7186C439.7 86.2527 441.919 83.5051 443.399 80.4756C444.949 77.4461 445.724 74.487 445.724 71.5984C445.724 68.6394 444.561 67.1598 442.236 67.1598C440.193 67.1598 437.974 68.3575 435.578 70.753C433.183 73.1484 430.964 76.2836 428.92 80.1585C426.877 84.0335 425.327 88.1902 424.271 92.6288Z" fill="white"/>
<path d="M461.751 120C458.017 120 455.022 118.556 452.768 115.667C450.513 112.708 449.386 108.551 449.386 103.197C449.386 98.5469 450.196 93.9322 451.817 89.3527C453.508 84.7732 455.692 80.6165 458.369 76.8824C461.046 73.1484 463.97 70.1541 467.14 67.8996C470.381 65.6451 473.516 64.5178 476.546 64.5178C479.857 64.5178 482.217 65.328 483.627 66.9485C485.106 68.4985 485.846 70.6121 485.846 73.2893C485.846 76.4597 484.719 79.6301 482.464 82.8005C480.28 85.9005 477.18 88.6834 473.164 91.1493C469.219 93.6151 464.569 95.4469 459.214 96.6446C457.664 96.9969 456.854 97.8776 456.784 99.2867C456.713 99.7798 456.678 100.308 456.678 100.872C456.678 101.365 456.678 101.858 456.678 102.351C456.678 106.367 457.347 109.397 458.686 111.44C460.095 113.483 461.997 114.505 464.393 114.505C467.07 114.505 469.642 113.272 472.107 110.806C474.644 108.34 476.757 104.852 478.448 100.343C478.66 99.7094 479.082 99.3923 479.716 99.3923C480.139 99.3923 480.386 99.5685 480.456 99.9207C480.597 100.273 480.597 100.696 480.456 101.189C478.202 107.389 475.454 112.074 472.213 115.244C469.043 118.415 465.555 120 461.751 120ZM457.841 92.6288C457.7 93.122 457.77 93.5447 458.052 93.897C458.404 94.1788 458.827 94.2492 459.32 94.1083C463.688 92.9106 467.352 91.114 470.311 88.7186C473.27 86.2527 475.489 83.5051 476.969 80.4756C478.519 77.4461 479.294 74.487 479.294 71.5984C479.294 68.6394 478.131 67.1598 475.806 67.1598C473.763 67.1598 471.544 68.3575 469.148 70.753C466.753 73.1484 464.534 76.2836 462.491 80.1585C460.447 84.0335 458.897 88.1902 457.841 92.6288Z" fill="white"/>
</svg>
