<svg width="295" height="170" viewBox="0 0 295 170" fill="none" xmlns="http://www.w3.org/2000/svg">
<path d="M16.2961 170C11.5912 170 7.69899 168.075 4.6194 164.225C1.53981 160.29 0 155.285 0 149.211C0 143.479 0.898229 137.876 2.69466 132.4C4.57663 126.84 7.0574 121.835 10.137 117.386C13.3021 112.852 16.7666 109.259 20.5306 106.607C24.3801 103.955 28.2296 102.629 32.0791 102.629C36.1852 102.629 39.6497 103.741 42.4727 105.965C42.9004 106.307 43.157 106.607 43.2426 106.864C43.3281 107.035 43.2853 107.462 43.1142 108.147L39.6497 124.958C39.3931 126.155 38.837 126.754 37.9816 126.754C37.0406 126.754 36.4846 126.112 36.3135 124.829L35.6719 115.718C35.4153 111.783 34.8165 109.216 33.8755 108.018C33.02 106.821 31.7369 106.222 30.026 106.222C27.6308 106.222 25.1928 107.42 22.712 109.815C20.2312 112.125 17.9215 115.29 15.7829 119.311C13.7298 123.247 12.0617 127.652 10.7786 132.529C9.58093 137.32 8.98213 142.196 8.98213 147.158C8.98213 157.937 12.4895 163.327 19.5041 163.327C22.8403 163.327 25.8343 161.787 28.4862 158.707C31.2236 155.627 33.7472 150.837 36.0569 144.335C36.3135 143.479 36.9123 143.052 37.8533 143.052C38.3666 143.052 38.666 143.265 38.7515 143.693C38.8371 144.035 38.7515 144.763 38.4949 145.875C37.6394 150.58 36.0996 154.729 33.8755 158.322C31.6513 161.915 28.9995 164.781 25.9199 166.92C22.9258 168.973 19.7179 170 16.2961 170Z" fill="#F16020"/>
<path d="M58.9723 170C53.6686 170 49.4769 167.818 46.3974 163.455C43.3178 159.007 41.778 153.018 41.778 145.49C41.778 139.929 42.6762 134.582 44.4726 129.449C46.269 124.316 48.6215 119.739 51.53 115.718C54.524 111.697 57.8175 108.532 61.4104 106.222C65.0887 103.827 68.7671 102.629 72.4455 102.629C77.7493 102.629 81.9409 104.81 85.0205 109.173C88.1001 113.537 89.6399 119.525 89.6399 127.139C89.6399 132.7 88.7417 138.047 86.9453 143.18C85.1488 148.313 82.7536 152.89 79.7596 156.911C76.8511 160.932 73.5576 164.14 69.8792 166.535C66.2863 168.845 62.6507 170 58.9723 170ZM58.7157 166.92C61.4531 166.92 64.105 165.594 66.6713 162.942C69.3232 160.29 71.7184 156.782 73.857 152.419C75.9956 148.056 77.7065 143.223 78.9896 137.918C80.2728 132.529 80.9144 127.139 80.9144 121.749C80.9144 111.056 78.1342 105.709 72.5739 105.709C69.922 105.709 67.2701 107.035 64.6182 109.687C61.9664 112.253 59.5711 115.718 57.4325 120.081C55.3795 124.444 53.7114 129.321 52.4282 134.71C51.145 140.014 50.5034 145.361 50.5034 150.751C50.5034 161.53 53.2409 166.92 58.7157 166.92Z" fill="#F16020"/>
<path d="M92.5992 168.845C91.4871 168.845 91.0594 168.289 91.316 167.177L104.276 111.74C105.046 108.575 104.019 106.992 101.196 106.992H98.5017C97.133 106.992 96.4487 106.393 96.4487 105.195C96.4487 103.998 97.2186 103.399 98.7584 103.399C101.41 103.399 103.378 103.057 104.661 102.372C106.03 101.688 106.928 100.319 107.356 98.2657C108.468 93.3893 110.093 89.069 112.232 85.3048C114.456 81.455 117.108 78.4179 120.187 76.1936C123.267 73.9693 126.646 72.8571 130.324 72.8571C133.318 72.8571 135.713 73.5843 137.51 75.0387C139.392 76.4075 140.333 78.3324 140.333 80.8134C140.333 82.6955 139.82 84.2354 138.793 85.4331C137.852 86.5453 136.654 87.1013 135.2 87.1013C133.404 87.1013 132.206 86.588 131.607 85.5614C131.094 84.5348 130.752 83.3371 130.581 81.9683C130.495 80.5995 130.239 79.4018 129.811 78.3752C129.383 77.3486 128.399 76.8353 126.86 76.8353C124.892 76.8353 123.138 77.8191 121.599 79.7868C120.144 81.6689 118.818 85.262 117.621 90.5661L115.055 101.731C114.798 102.843 115.268 103.399 116.466 103.399H126.731C128.357 103.399 128.998 103.998 128.656 105.195C128.399 106.393 127.63 106.992 126.346 106.992H115.183C114.327 106.992 113.771 107.42 113.515 108.275L99.7849 167.433C99.5283 168.375 98.9295 168.845 97.9885 168.845H92.5992Z" fill="#F16020"/>
<path d="M120.954 168.845C119.842 168.845 119.414 168.289 119.671 167.177L132.631 111.74C133.401 108.575 132.374 106.992 129.551 106.992H126.857C125.488 106.992 124.804 106.393 124.804 105.195C124.804 103.998 125.573 103.399 127.113 103.399C129.765 103.399 131.733 103.057 133.016 102.372C134.385 101.688 135.283 100.319 135.71 98.2657C136.823 93.3893 138.448 89.069 140.586 85.3048C142.811 81.455 145.462 78.4179 148.542 76.1936C151.622 73.9693 155.001 72.8571 158.679 72.8571C161.673 72.8571 164.068 73.5843 165.865 75.0387C167.747 76.4075 168.688 78.3324 168.688 80.8134C168.688 82.6955 168.174 84.2354 167.148 85.4331C166.207 86.5453 165.009 87.1013 163.555 87.1013C161.759 87.1013 160.561 86.588 159.962 85.5614C159.449 84.5348 159.107 83.3371 158.936 81.9683C158.85 80.5995 158.594 79.4018 158.166 78.3752C157.738 77.3486 156.754 76.8353 155.214 76.8353C153.247 76.8353 151.493 77.8191 149.954 79.7868C148.499 81.6689 147.173 85.262 145.976 90.5661L143.409 101.731C143.153 102.843 143.623 103.399 144.821 103.399H155.086C156.712 103.399 157.353 103.998 157.011 105.195C156.754 106.393 155.984 106.992 154.701 106.992H143.538C142.682 106.992 142.126 107.42 141.87 108.275L128.14 167.433C127.883 168.375 127.284 168.845 126.343 168.845H120.954Z" fill="#F16020"/>
<path d="M161.756 170C157.222 170 153.586 168.246 150.849 164.739C148.111 161.145 146.743 156.098 146.743 149.596C146.743 143.95 147.726 138.346 149.694 132.785C151.747 127.225 154.399 122.177 157.65 117.643C160.9 113.109 164.45 109.473 168.3 106.735C172.235 103.998 176.041 102.629 179.72 102.629C183.74 102.629 186.606 103.613 188.317 105.58C190.114 107.462 191.012 110.029 191.012 113.28C191.012 117.13 189.643 120.979 186.906 124.829C184.254 128.593 180.49 131.973 175.614 134.967C170.823 137.961 165.177 140.186 158.676 141.64C156.794 142.068 155.81 143.137 155.725 144.848C155.639 145.447 155.596 146.089 155.596 146.773C155.596 147.372 155.596 147.971 155.596 148.57C155.596 153.446 156.409 157.125 158.034 159.606C159.745 162.087 162.055 163.327 164.964 163.327C168.214 163.327 171.337 161.83 174.331 158.836C177.41 155.841 179.977 151.607 182.03 146.131C182.286 145.361 182.799 144.976 183.569 144.976C184.083 144.976 184.382 145.19 184.468 145.618C184.639 146.046 184.639 146.559 184.468 147.158C181.73 154.686 178.394 160.376 174.459 164.225C170.609 168.075 166.375 170 161.756 170ZM157.008 136.764C156.837 137.362 156.922 137.876 157.265 138.303C157.692 138.646 158.206 138.731 158.804 138.56C164.108 137.106 168.556 134.924 172.149 132.015C175.742 129.021 178.437 125.685 180.233 122.006C182.115 118.327 183.056 114.734 183.056 111.227C183.056 107.634 181.645 105.837 178.822 105.837C176.341 105.837 173.646 107.291 170.738 110.2C167.829 113.109 165.135 116.916 162.654 121.621C160.173 126.326 158.291 131.374 157.008 136.764Z" fill="#F16020"/>
<path d="M202.516 170C197.982 170 194.347 168.246 191.609 164.739C188.872 161.145 187.503 156.098 187.503 149.596C187.503 143.95 188.487 138.346 190.454 132.785C192.507 127.225 195.159 122.177 198.41 117.643C201.661 113.109 205.211 109.473 209.06 106.735C212.995 103.998 216.802 102.629 220.48 102.629C224.501 102.629 227.367 103.613 229.078 105.58C230.874 107.462 231.772 110.029 231.772 113.28C231.772 117.13 230.403 120.979 227.666 124.829C225.014 128.593 221.25 131.973 216.374 134.967C211.584 137.961 205.938 140.186 199.437 141.64C197.555 142.068 196.571 143.137 196.485 144.848C196.4 145.447 196.357 146.089 196.357 146.773C196.357 147.372 196.357 147.971 196.357 148.57C196.357 153.446 197.17 157.125 198.795 159.606C200.506 162.087 202.815 163.327 205.724 163.327C208.975 163.327 212.097 161.83 215.091 158.836C218.171 155.841 220.737 151.607 222.79 146.131C223.047 145.361 223.56 144.976 224.33 144.976C224.843 144.976 225.143 145.19 225.228 145.618C225.399 146.046 225.399 146.559 225.228 147.158C222.491 154.686 219.154 160.376 215.219 164.225C211.37 168.075 207.135 170 202.516 170ZM197.768 136.764C197.597 137.362 197.683 137.876 198.025 138.303C198.453 138.646 198.966 138.731 199.565 138.56C204.869 137.106 209.317 134.924 212.91 132.015C216.503 129.021 219.197 125.685 220.994 122.006C222.876 118.327 223.817 114.734 223.817 111.227C223.817 107.634 222.405 105.837 219.582 105.837C217.101 105.837 214.407 107.291 211.498 110.2C208.59 113.109 205.895 116.916 203.414 121.621C200.934 126.326 199.052 131.374 197.768 136.764Z" fill="#F16020"/>
<path d="M73.3072 29.0923H49.6557C49.7822 25.9301 50.0351 19.9851 42.6994 19.9851C38.5256 19.9851 33.9724 22.8943 33.2135 27.3214C32.0752 32.8869 34.4783 34.0253 49.9087 41.6146C65.8449 49.4568 68.7539 57.5521 66.7303 68.4301C64.2007 82.0908 53.5765 97.1429 28.7868 97.1429C1.72041 97.1429 -1.69451 79.4345 0.582102 67.4182L1.08802 64.3824H24.8659C22.8423 75.2604 29.2927 77.1577 32.3282 77.1577C38.0197 77.1577 42.1935 72.4777 43.0788 68.1771C44.2171 61.9792 40.5493 60.4613 27.269 54.3899C21.1981 51.7336 6.02067 45.1562 9.30911 27.5744C12.5975 9.99256 31.4428 0 47.1261 0C56.3591 0 65.7185 3.41517 70.5246 10.625C74.8249 17.4554 74.066 23.7798 73.3072 29.0923Z" fill="#F16020"/>
<path fill-rule="evenodd" clip-rule="evenodd" d="M97.8746 22.7679L84.4679 95.372H103.062C104.244 90.8162 105.882 86.6493 108.009 82.9058L108.018 82.8904L108.026 82.875C109.122 80.9787 110.328 79.2262 111.648 77.6297L121.779 22.7679H140.118L144.039 1.77083H83.3296L79.4087 22.7679H97.8746ZM108.789 93.1162C108.543 93.853 108.312 94.605 108.094 95.372H108.372L108.789 93.1162Z" fill="#F16020"/>
<path fill-rule="evenodd" clip-rule="evenodd" d="M165.098 69.0855L177.559 1.77083H153.655L140.763 71.4109C141.794 72.2242 142.643 73.1554 143.313 74.1817C144.078 73.4971 144.871 72.8532 145.698 72.2559C149.577 69.4548 153.944 68.0001 158.679 68C160.922 68 163.096 68.3281 165.098 69.0855ZM155.768 88.0084C157.033 90.1771 158.988 91.2222 160.917 91.6694L160.231 95.372H149.855L150.709 91.6549L150.713 91.6359C151.831 86.6845 152.913 84.0534 153.653 82.9556L153.797 82.7564C153.903 82.6222 154.002 82.5044 154.096 82.4019L154.098 82.422L154.116 82.5702C154.342 84.3783 154.815 86.1262 155.618 87.7333L155.688 87.8733L155.768 88.0084Z" fill="#F16020"/>
<path d="M177.843 95.372L195.17 1.77083H219.074L205.668 74.375H233.367L229.446 95.372H177.843Z" fill="#F16020"/>
<path d="M239.476 95.372L256.804 1.77083H280.708L267.301 74.375H295L291.079 95.372H239.476Z" fill="#F16020"/>
</svg>
